<svg preserveAspectRatio="none" width="100%" height="100%" overflow="visible" style="display: block;" viewBox="0 0 24 24" fill="none" xmlns="http://www.w3.org/2000/svg">
<g id="Box">
<path id="Shape" fill-rule="evenodd" clip-rule="evenodd" d="M9.00022 4.24487C9.00022 3.65741 8.49712 3.18863 7.91445 3.26349C6.5341 3.44083 5.61111 3.76231 4.6857 4.68772C3.76076 5.61265 3.43914 6.53517 3.26175 7.91434C3.1868 8.49702 3.6556 9.00016 4.24308 9.00016C4.76311 9.00016 5.1908 8.60209 5.25988 8.08667C5.40752 6.98504 5.61275 6.58909 6.09991 6.10193C6.58738 5.61447 6.98351 5.40928 8.08669 5.26162C8.60214 5.19263 9.00022 4.76492 9.00022 4.24487ZM16.0853 3.26352C15.5026 3.18866 14.9995 3.65744 14.9995 4.2449C14.9995 4.76494 15.3976 5.19265 15.913 5.26165C17.016 5.40931 17.4121 5.6145 17.8995 6.10193C18.387 6.58936 18.5922 6.98547 18.7398 8.08847C18.8088 8.60391 19.2365 9.00199 19.7566 9.00199C20.344 9.00199 20.8128 8.49889 20.738 7.91621C20.5606 6.536 20.2391 5.61307 19.3138 4.68772C18.3884 3.76236 17.4655 3.44087 16.0853 3.26352ZM8.99998 19.7586C8.99998 20.3461 8.49687 20.8148 7.9142 20.74C6.53399 20.5626 5.61105 20.2411 4.6857 19.3158C3.75995 18.39 3.43858 17.4667 3.26128 16.0855C3.18649 15.5029 3.65525 14.9998 4.2427 14.9998C4.76275 14.9998 5.19048 15.3979 5.25941 15.9133C5.40709 17.0176 5.61224 17.4139 6.09991 17.9016C6.58734 18.389 6.98346 18.5942 8.08645 18.7418C8.6019 18.8108 8.99998 19.2386 8.99998 19.7586ZM19.7567 15.0002C20.3442 15.0002 20.8129 15.5032 20.7381 16.0859C20.5608 17.4669 20.2394 18.3901 19.3138 19.3158C18.3885 20.241 17.4658 20.5625 16.0859 20.7399C15.5032 20.8148 15.0001 20.346 15.0001 19.7585C15.0001 19.2385 15.3982 18.8108 15.9136 18.7418C17.0162 18.5941 17.4122 18.3889 17.8995 17.9016C18.3872 17.4139 18.5923 17.0177 18.74 15.9137C18.8089 15.3982 19.2367 15.0002 19.7567 15.0002ZM7.35776 7.35776C7.10236 7.61316 7.07794 7.87728 7.02911 8.40553C7.01143 8.59677 7 8.79839 7 9C7 9.20162 7.01143 9.40323 7.02911 9.59447C7.07794 10.1227 7.10236 10.3868 7.35776 10.6422C7.61316 10.8976 7.87728 10.9221 8.40553 10.9709C8.59677 10.9886 8.79839 11 9 11C9.20162 11 9.40323 10.9886 9.59447 10.9709C10.1227 10.9221 10.3868 10.8976 10.6422 10.6422C10.8976 10.3868 10.9221 10.1227 10.9709 9.59447C10.9886 9.40323 11 9.20162 11 9C11 8.79839 10.9886 8.59677 10.9709 8.40553C10.9221 7.87728 10.8976 7.61316 10.6422 7.35776C10.3868 7.10236 10.1227 7.07794 9.59447 7.02911C9.40323 7.01143 9.20162 7 9 7C8.79839 7 8.59677 7.01143 8.40553 7.02911C7.87728 7.07794 7.61316 7.10236 7.35776 7.35776ZM13.0291 8.40553C13.0779 7.87728 13.1024 7.61316 13.3578 7.35776C13.6132 7.10236 13.8773 7.07794 14.4055 7.02911C14.5968 7.01143 14.7984 7 15 7C15.2016 7 15.4032 7.01143 15.5945 7.02911C16.1227 7.07794 16.3868 7.10236 16.6422 7.35776C16.8976 7.61316 16.9221 7.87728 16.9709 8.40553C16.9886 8.59677 17 8.79839 17 9C17 9.20162 16.9886 9.40323 16.9709 9.59447C16.9221 10.1227 16.8976 10.3868 16.6422 10.6422C16.3868 10.8976 16.1227 10.9221 15.5945 10.9709C15.4032 10.9886 15.2016 11 15 11C14.7984 11 14.5968 10.9886 14.4055 10.9709C13.8773 10.9221 13.6132 10.8976 13.3578 10.6422C13.1024 10.3868 13.0779 10.1227 13.0291 9.59447C13.0114 9.40323 13 9.20162 13 9C13 8.79839 13.0114 8.59677 13.0291 8.40553ZM7.02911 14.4055C7.07794 13.8773 7.10236 13.6132 7.35776 13.3578C7.61316 13.1024 7.87728 13.0779 8.40553 13.0291C8.59677 13.0114 8.79839 13 9 13C9.20162 13 9.40323 13.0114 9.59447 13.0291C10.1227 13.0779 10.3868 13.1024 10.6422 13.3578C10.8976 13.6132 10.9221 13.8773 10.9709 14.4055C10.9886 14.5968 11 14.7984 11 15C11 15.2016 10.9886 15.4032 10.9709 15.5945C10.9221 16.1227 10.8976 16.3868 10.6422 16.6422C10.3868 16.8976 10.1227 16.9221 9.59447 16.9709C9.40323 16.9886 9.20162 17 9 17C8.79839 17 8.59677 16.9886 8.40553 16.9709C7.87728 16.9221 7.61316 16.8976 7.35776 16.6422C7.10236 16.3868 7.07794 16.1227 7.02911 15.5945C7.01143 15.4032 7 15.2016 7 15C7 14.7984 7.01143 14.5968 7.02911 14.4055ZM15.5 15C15.2239 15 15 15.2239 15 15.5V16C15 16.5523 14.5523 17 14 17C13.4477 17 13 16.5523 13 16V14.5C13 13.6716 13.6716 13 14.5 13H16C16.5523 13 17 13.4477 17 14C17 14.5523 16.5523 15 16 15H15.5Z" fill="var(--fill-0, #FAFAFA)"/>
</g>
</svg>
