<svg preserveAspectRatio="none" width="100%" height="100%" overflow="visible" style="display: block;" viewBox="0 0 24 24" fill="none" xmlns="http://www.w3.org/2000/svg">
<g id="Box">
<path id="Shape" fill-rule="evenodd" clip-rule="evenodd" d="M2.01818 11H2.00928C2.10703 13.41 3.25057 14.5798 5.4399 16.8194C5.50484 16.8859 5.57019 16.952 5.63591 17.0177C6.13055 17.5123 6.64682 17.9853 7.16201 18.4292C9.14947 20.1413 10.1432 20.9973 11.9999 20.9973C13.8566 20.9973 14.8503 20.1413 16.8377 18.4292C17.3529 17.9853 17.8692 17.5123 18.3638 17.0177C18.4296 16.952 18.4949 16.8859 18.5598 16.8194C20.7492 14.5798 21.8927 13.41 21.9905 11H21.9804C21.9934 10.8288 22 10.6557 22 10.4808C22 7.04072 19.4361 4.25195 16.2733 4.25195C14.57 4.25195 13.0403 5.06082 11.9913 6.34468C10.943 5.07162 9.42029 4.27057 7.7256 4.27057C4.56344 4.27057 2 7.05956 2 10.4999C2 10.6683 2.00614 10.835 2.01818 11Z" fill="var(--fill-0, white)"/>
</g>
</svg>
