<svg preserveAspectRatio="none" width="100%" height="100%" overflow="visible" style="display: block;" viewBox="0 0 24 24" fill="none" xmlns="http://www.w3.org/2000/svg">
<g id="Box">
<path id="Shape" fill-rule="evenodd" clip-rule="evenodd" d="M22 12C22 17.5228 17.5228 22 12 22C6.47715 22 2 17.5228 2 12C2 6.47715 6.47715 2 12 2C17.5228 2 22 6.47715 22 12ZM12.977 8.00007C12.977 7.44638 12.5304 6.99751 11.9795 6.99751C11.4287 6.99751 10.9821 7.44637 10.9821 8.00007L10.9821 10.9975L8.04092 10.9975C7.49005 10.9975 7.04348 11.4464 7.04348 12.0001C7.04349 12.5538 7.49005 13.0027 8.04092 13.0027L10.9821 13.0027L10.9821 16C10.9821 16.5537 11.4286 17.0026 11.9795 17.0026C12.5304 17.0026 12.9769 16.5537 12.9769 16L12.9769 13.0027L15.9999 13.0027C16.5508 13.0027 16.9974 12.5538 16.9974 12.0001C16.9974 11.4464 16.5508 10.9975 15.9999 10.9975L12.977 10.9975L12.977 8.00007Z" fill="var(--fill-0, #FAFAFA)"/>
</g>
</svg>
