<svg preserveAspectRatio="none" width="100%" height="100%" overflow="visible" style="display: block;" viewBox="0 0 24 24" fill="none" xmlns="http://www.w3.org/2000/svg">
<g id="Layout">
<path id="Color" d="M12 3C12.6995 3 13.399 3.03059 14.0771 3.08105C16.6931 3.27575 18.0016 3.37267 19.3145 4.68555C20.6273 5.99842 20.7243 7.30687 20.9189 9.92285C20.9694 10.601 21 11.3005 21 12C21 12.6995 20.9694 13.399 20.9189 14.0771C20.7243 16.6931 20.6273 18.0016 19.3145 19.3145C18.0016 20.6273 16.6931 20.7243 14.0771 20.9189C13.399 20.9694 12.6995 21 12 21C11.3005 21 10.601 20.9694 9.92285 20.9189C7.30686 20.7243 5.99842 20.6273 4.68555 19.3145C3.37267 18.0016 3.27575 16.6931 3.08105 14.0771C3.03059 13.399 3 12.6995 3 12C3 11.3005 3.03059 10.601 3.08105 9.92285C3.27575 7.30686 3.37267 5.99842 4.68555 4.68555C5.99842 3.37267 7.30686 3.27575 9.92285 3.08105C10.601 3.03059 11.3005 3 12 3ZM12 7C11.4477 7 11 7.44772 11 8V11.957C10.9882 12.2274 11.0856 12.5016 11.292 12.708L13.291 14.707C13.6815 15.0976 14.3146 15.0976 14.7051 14.707C15.0956 14.3165 15.0956 13.6835 14.7051 13.293L13 11.5879V8C13 7.44772 12.5523 7 12 7Z" fill="var(--fill-0, white)" fill-opacity="0.46"/>
</g>
</svg>
