<svg preserveAspectRatio="none" width="100%" height="100%" overflow="visible" style="display: block;" viewBox="0 0 24 24" fill="none" xmlns="http://www.w3.org/2000/svg">
<g id="Layout">
<path id="Color" d="M7.5 13C7.77193 13 8.044 13.0116 8.30762 13.0312C9.3249 13.107 9.83419 13.1448 10.3447 13.6553C10.8553 14.1659 10.893 14.675 10.9688 15.6924C10.9884 15.956 11 16.228 11 16.5C11 16.7719 10.9884 17.044 10.9688 17.3076C10.893 18.325 10.8553 18.8341 10.3447 19.3447C9.83415 19.8553 9.32498 19.893 8.30762 19.9688C8.04399 19.9884 7.77193 20 7.5 20C7.22802 20 6.95604 19.9884 6.69238 19.9688C5.67502 19.893 5.16585 19.8553 4.65527 19.3447C4.14481 18.8342 4.10696 18.3249 4.03125 17.3076C4.01164 17.044 4 16.7719 4 16.5C4 16.228 4.01163 15.956 4.03125 15.6924C4.10697 14.675 4.14469 14.1659 4.65527 13.6553C5.16585 13.1447 5.67502 13.107 6.69238 13.0312C6.95604 13.0116 7.22803 13 7.5 13ZM16.5 13C16.772 13 17.044 13.0116 17.3076 13.0312C18.3249 13.107 18.8342 13.1447 19.3447 13.6553C19.8553 14.1658 19.893 14.6751 19.9688 15.6924C19.9884 15.956 20 16.228 20 16.5C20 16.772 19.9884 17.044 19.9688 17.3076C19.893 18.3249 19.8553 18.8342 19.3447 19.3447C18.8342 19.8553 18.3249 19.893 17.3076 19.9688C17.044 19.9884 16.772 20 16.5 20C16.228 20 15.956 19.9884 15.6924 19.9688C14.6751 19.893 14.1658 19.8553 13.6553 19.3447C13.1447 18.8342 13.107 18.3249 13.0312 17.3076C13.0116 17.044 13 16.772 13 16.5C13 16.228 13.0116 15.956 13.0312 15.6924C13.107 14.6751 13.1447 14.1658 13.6553 13.6553C14.1658 13.1447 14.6751 13.107 15.6924 13.0312C15.956 13.0116 16.228 13 16.5 13ZM7.49902 4C7.77099 4 8.04298 4.01163 8.30664 4.03125C9.32422 4.10698 9.83306 4.14556 10.3438 4.65625C10.8542 5.16681 10.8921 5.67523 10.9678 6.69238C10.9874 6.95616 11 7.22887 11 7.50098C11 7.77297 10.9874 8.04492 10.9678 8.30859C10.892 9.32617 10.8544 9.83502 10.3438 10.3457C9.83306 10.8564 9.32422 10.894 8.30664 10.9697C8.04297 10.9893 7.77101 11.0019 7.49902 11.002C7.22692 11.002 6.95421 10.9894 6.69043 10.9697C5.67328 10.894 5.16486 10.8562 4.6543 10.3457C4.14361 9.83502 4.10503 9.32617 4.0293 8.30859C4.00968 8.04494 3.99805 7.77295 3.99805 7.50098C3.99805 7.22887 4.00966 6.95616 4.0293 6.69238C4.10501 5.67511 4.14369 5.16686 4.6543 4.65625C5.16491 4.14564 5.67316 4.10696 6.69043 4.03125C6.95421 4.01162 7.22692 4 7.49902 4ZM16.501 4C16.7729 4 17.0449 4.01163 17.3086 4.03125C18.3262 4.10698 18.835 4.14556 19.3457 4.65625C19.8562 5.16681 19.894 5.67523 19.9697 6.69238C19.9894 6.95616 20.002 7.22887 20.002 7.50098C20.0019 7.77297 19.9893 8.04492 19.9697 8.30859C19.894 9.32617 19.8564 9.83502 19.3457 10.3457C18.835 10.8564 18.3262 10.894 17.3086 10.9697C17.0449 10.9893 16.773 11.0019 16.501 11.002C16.2289 11.002 15.9562 10.9894 15.6924 10.9697C14.6752 10.894 14.1668 10.8562 13.6562 10.3457C13.1456 9.83502 13.107 9.32617 13.0312 8.30859C13.0116 8.04494 13 7.77295 13 7.50098C13 7.22887 13.0116 6.95616 13.0312 6.69238C13.107 5.67511 13.1456 5.16686 13.6562 4.65625C14.1669 4.14564 14.6751 4.10696 15.6924 4.03125C15.9562 4.01162 16.2289 4 16.501 4Z" fill="var(--fill-0, white)" fill-opacity="0.46"/>
</g>
</svg>
