<svg preserveAspectRatio="none" width="100%" height="100%" overflow="visible" style="display: block;" viewBox="0 0 21.75 6" fill="none" xmlns="http://www.w3.org/2000/svg">
<g id="MIR">
<path d="M0 0.000976402H2.04049C2.22599 0.000976402 2.78248 -0.0615134 3.02982 0.813344C3.21532 1.37575 3.46265 2.25061 3.83365 3.5629H3.95731C4.32831 2.18812 4.63747 1.25077 4.76114 0.813344C5.00847 -0.0615134 5.6268 0.000976402 5.87413 0.000976402H7.79096V6H5.8123V2.43808H5.68864L4.63747 6H3.15348L2.10232 2.43808H1.91682V6H0M8.59479 0.000976402H10.5734V3.5629H10.7589L12.0574 0.625875C12.3048 0.0634662 12.8613 0.000976402 12.8613 0.000976402H14.7163V6H12.7376V2.43808H12.6139L11.3154 5.3751C11.0681 5.93751 10.4498 6 10.4498 6H8.59479M17.3751 4.1878V6H15.5201V2.87551H21.5797C21.3324 3.62539 20.4667 4.1878 19.4774 4.1878" fill="white"/>
<path d="M21.7034 2.50057C21.9507 1.37575 21.2087 0.000976312 19.6011 0.000976312H15.3964C15.5201 1.31326 16.6331 2.50057 17.8079 2.50057" fill="white"/>
</g>
</svg>
