<svg preserveAspectRatio="none" width="100%" height="100%" overflow="visible" style="display: block;" viewBox="0 0 16.5969 11.6677" fill="none" xmlns="http://www.w3.org/2000/svg">
<path id="Vector" fill-rule="evenodd" clip-rule="evenodd" d="M0.683077 0L0.867693 0.516923H1.38462L0.96 0.830769L1.12615 1.32923L0.683077 1.01538L0.276923 1.32923L0.443077 0.830769L0 0.516923H0.553846L0.683077 0ZM3.72923 0L3.89539 0.516923H4.43077L3.98769 0.830769L4.17231 1.32923L3.72923 1.01538L3.28615 1.32923L3.47077 0.830769L3.02769 0.516923H3.56308L3.72923 0ZM6.77539 0L6.94154 0.516923H7.47693L7.03385 0.830769L7.21846 1.32923L6.77539 1.01538L6.33231 1.32923L6.51692 0.830769L6.07385 0.516923H6.60923L6.77539 0ZM9.80308 0L9.98769 0.516923H10.5046L10.08 0.830769L10.2462 1.32923L9.80308 1.01538L9.37846 1.32923L9.54462 0.830769L9.10154 0.516923H9.65539L9.80308 0ZM12.8492 0L13.0154 0.516923H13.5508L13.1077 0.830769L13.2923 1.32923L12.8308 1.01538L12.4062 1.32923L12.5723 0.830769L12.1292 0.516923H12.6646L12.8492 0ZM15.8954 0L16.0615 0.516923H16.5969L16.1539 0.830769L16.3385 1.32923L15.8954 1.01538L15.4523 1.32923L15.6369 0.830769L15.1939 0.516923H15.7292L15.8954 0ZM2.21539 1.29231L2.38154 1.80923H2.91692L2.47385 2.12308L2.65846 2.62154L2.21539 2.30769L1.77231 2.62154L1.95692 2.12308L1.51385 1.80923H2.04923L2.21539 1.29231ZM5.24308 1.29231L5.42769 1.80923H5.94462L5.52 2.12308L5.68616 2.62154L5.24308 2.30769L4.81846 2.62154L4.98462 2.12308L4.54154 1.80923H5.09539L5.24308 1.29231ZM8.28923 1.29231L8.45539 1.80923H8.99077L8.54769 2.12308L8.73231 2.62154L8.28923 2.30769L7.84616 2.62154L8.03077 2.12308L7.58769 1.80923H8.12308L8.28923 1.29231ZM11.3354 1.29231L11.5015 1.80923H12.0369L11.5938 2.12308L11.7785 2.62154L11.3354 2.30769L10.8923 2.62154L11.0769 2.12308L10.6338 1.80923H11.1692L11.3354 1.29231ZM14.3631 1.29231L14.5477 1.80923H15.0462L14.6215 2.12308L14.7877 2.62154L14.3446 2.30769L13.92 2.62154L14.0862 2.12308L13.6431 1.80923H14.1969L14.3631 1.29231ZM0.701539 2.58461L0.849231 3.10154H1.40308L0.96 3.41538L1.12615 3.91385L0.683077 3.6L0.276923 3.91385L0.443077 3.41538L0 3.10154H0.553846L0.701539 2.58461ZM3.72923 2.58461L3.89539 3.10154H4.43077L4.00616 3.41538L4.17231 3.91385L3.72923 3.6L3.30462 3.91385L3.47077 3.41538L3.02769 3.10154H3.56308L3.72923 2.58461ZM6.77539 2.58461L6.94154 3.10154H7.47693L7.03385 3.41538L7.21846 3.91385L6.77539 3.6L6.33231 3.91385L6.51692 3.41538L6.07385 3.10154H6.60923L6.77539 2.58461ZM9.80308 2.58461L9.98769 3.10154H10.5046L10.08 3.41538L10.2462 3.91385L9.80308 3.6L9.37846 3.91385L9.54462 3.41538L9.10154 3.10154H9.65539L9.80308 2.58461ZM12.8492 2.58461L13.0154 3.10154H13.5508L13.1262 3.41538L13.2923 3.91385L12.8492 3.6L12.4246 3.91385L12.5908 3.41538L12.1477 3.10154H12.6831L12.8492 2.58461ZM15.8954 2.58461L16.0615 3.10154H16.5969L16.1539 3.41538L16.3385 3.91385L15.8954 3.6L15.4523 3.91385L15.6369 3.41538L15.1939 3.10154H15.7292L15.8954 2.58461ZM2.21539 3.87692L2.38154 4.39385H2.91692L2.47385 4.70769L2.65846 5.20615L2.21539 4.89231L1.77231 5.20615L1.95692 4.70769L1.51385 4.39385H2.04923L2.21539 3.87692ZM5.24308 3.87692L5.42769 4.39385H5.94462L5.52 4.70769L5.68616 5.20615L5.24308 4.89231L4.81846 5.20615L4.98462 4.70769L4.54154 4.39385H5.09539L5.24308 3.87692ZM8.28923 3.87692L8.45539 4.39385H8.99077L8.56616 4.70769L8.73231 5.20615L8.28923 4.89231L7.86462 5.20615L8.03077 4.70769L7.58769 4.39385H8.12308L8.28923 3.87692ZM11.3354 3.87692L11.5015 4.39385H12.0369L11.5938 4.70769L11.7785 5.20615L11.3354 4.89231L10.8923 5.20615L11.0769 4.70769L10.6338 4.39385H11.1692L11.3354 3.87692ZM14.3631 3.87692L14.5477 4.39385H15.0462L14.6215 4.70769L14.7877 5.20615L14.3446 4.89231L13.92 5.20615L14.0862 4.70769L13.6431 4.39385H14.1969L14.3631 3.87692ZM0.701539 5.16923L0.849231 5.68615H1.40308L0.96 6L1.12615 6.49846L0.683077 6.18461L0.276923 6.49846L0.443077 6L0 5.68615H0.553846L0.701539 5.16923ZM3.72923 5.16923L3.89539 5.68615H4.43077L4.00616 6L4.17231 6.49846L3.72923 6.18461L3.30462 6.49846L3.47077 6L3.02769 5.68615H3.56308L3.72923 5.16923ZM6.77539 5.16923L6.94154 5.68615H7.47693L7.03385 6L7.21846 6.49846L6.77539 6.18461L6.33231 6.49846L6.51692 6L6.07385 5.68615H6.60923L6.77539 5.16923ZM9.80308 5.16923L9.98769 5.68615H10.5046L10.08 6L10.2462 6.49846L9.80308 6.18461L9.37846 6.49846L9.54462 6L9.10154 5.68615H9.65539L9.80308 5.16923ZM12.8492 5.16923L13.0154 5.68615H13.5508L13.1262 6L13.2923 6.49846L12.8492 6.18461L12.4246 6.49846L12.5908 6L12.1477 5.68615H12.6831L12.8492 5.16923ZM15.8954 5.16923L16.0615 5.68615H16.5969L16.1539 6L16.3385 6.49846L15.8954 6.18461L15.4523 6.49846L15.6369 6L15.1939 5.68615H15.7292L15.8954 5.16923ZM2.21539 6.46154L2.38154 6.97846H2.91692L2.47385 7.29231L2.65846 7.79077L2.21539 7.47692L1.77231 7.79077L1.95692 7.29231L1.51385 6.97846H2.04923L2.21539 6.46154ZM5.24308 6.46154L5.42769 6.97846H5.94462L5.52 7.29231L5.68616 7.79077L5.24308 7.47692L4.81846 7.79077L4.98462 7.29231L4.54154 6.97846H5.09539L5.24308 6.46154ZM8.28923 6.46154L8.45539 6.97846H8.99077L8.56616 7.29231L8.73231 7.79077L8.28923 7.47692L7.86462 7.79077L8.03077 7.29231L7.58769 6.97846H8.12308L8.28923 6.46154ZM11.3354 6.46154L11.5015 6.97846H12.0369L11.5938 7.29231L11.7785 7.79077L11.3354 7.47692L10.8923 7.79077L11.0769 7.29231L10.6338 6.97846H11.1692L11.3354 6.46154ZM14.3631 6.46154L14.5477 6.97846H15.0462L14.6215 7.29231L14.7877 7.79077L14.3446 7.47692L13.92 7.79077L14.0862 7.29231L13.6431 6.97846H14.1969L14.3631 6.46154ZM0.701539 7.75384L0.849231 8.27077H1.40308L0.96 8.58461L1.12615 9.08308L0.683077 8.76923L0.276923 9.08308L0.443077 8.58461L0 8.27077H0.553846L0.701539 7.75384ZM3.72923 7.75384L3.89539 8.27077H4.43077L4.00616 8.58461L4.17231 9.08308L3.72923 8.76923L3.30462 9.08308L3.47077 8.58461L3.02769 8.27077H3.56308L3.72923 7.75384ZM6.77539 7.75384L6.94154 8.27077H7.47693L7.03385 8.58461L7.21846 9.08308L6.77539 8.76923L6.33231 9.08308L6.51692 8.58461L6.07385 8.27077H6.60923L6.77539 7.75384ZM9.80308 7.75384L9.98769 8.27077H10.5046L10.08 8.58461L10.2462 9.08308L9.80308 8.76923L9.37846 9.08308L9.54462 8.58461L9.10154 8.27077H9.65539L9.80308 7.75384ZM12.8492 7.75384L13.0154 8.27077H13.5508L13.1262 8.58461L13.2923 9.08308L12.8492 8.76923L12.4246 9.08308L12.5908 8.58461L12.1477 8.27077H12.6831L12.8492 7.75384ZM15.8954 7.75384L16.0615 8.27077H16.5969L16.1539 8.58461L16.3385 9.08308L15.8954 8.76923L15.4523 9.08308L15.6369 8.58461L15.1939 8.27077H15.7292L15.8954 7.75384ZM2.21539 9.04615L2.38154 9.56307H2.91692L2.47385 9.87692L2.65846 10.3754L2.21539 10.0615L1.77231 10.3754L1.95692 9.87692L1.51385 9.56307H2.04923L2.21539 9.04615ZM5.24308 9.04615L5.42769 9.56307H5.94462L5.52 9.87692L5.68616 10.3754L5.24308 10.0615L4.81846 10.3754L4.98462 9.87692L4.54154 9.56307H5.09539L5.24308 9.04615ZM8.28923 9.04615L8.45539 9.56307H8.99077L8.56616 9.87692L8.73231 10.3754L8.28923 10.0615L7.86462 10.3754L8.03077 9.87692L7.58769 9.56307H8.12308L8.28923 9.04615ZM11.3354 9.04615L11.5015 9.56307H12.0369L11.5938 9.87692L11.7785 10.3754L11.3354 10.0615L10.8923 10.3754L11.0769 9.87692L10.6338 9.56307H11.1692L11.3354 9.04615ZM14.3631 9.04615L14.5477 9.56307H15.0462L14.6215 9.87692L14.7877 10.3754L14.3446 10.0615L13.92 10.3754L14.0862 9.87692L13.6431 9.56307H14.1969L14.3631 9.04615ZM0.701539 10.3385L0.849231 10.8554H1.40308L0.96 11.1692L1.12615 11.6677L0.683077 11.3538L0.276923 11.6677L0.443077 11.1692L0 10.8554H0.553846L0.701539 10.3385ZM3.72923 10.3385L3.89539 10.8554H4.43077L4.00616 11.1692L4.17231 11.6677L3.72923 11.3538L3.30462 11.6677L3.47077 11.1692L3.02769 10.8554H3.56308L3.72923 10.3385ZM6.77539 10.3385L6.94154 10.8554H7.47693L7.03385 11.1692L7.21846 11.6677L6.77539 11.3538L6.33231 11.6677L6.51692 11.1692L6.07385 10.8554H6.60923L6.77539 10.3385ZM9.80308 10.3385L9.98769 10.8554H10.5046L10.08 11.1692L10.2462 11.6677L9.80308 11.3538L9.37846 11.6677L9.54462 11.1692L9.10154 10.8554H9.65539L9.80308 10.3385ZM12.8492 10.3385L13.0154 10.8554H13.5508L13.1262 11.1692L13.2923 11.6677L12.8492 11.3538L12.4246 11.6677L12.5908 11.1692L12.1477 10.8554H12.6831L12.8492 10.3385ZM15.8954 10.3385L16.0615 10.8554H16.5969L16.1539 11.1692L16.3385 11.6677L15.8954 11.3538L15.4523 11.6677L15.6369 11.1692L15.1939 10.8554H15.7292L15.8954 10.3385Z" fill="var(--fill-0, white)"/>
</svg>
