<svg preserveAspectRatio="none" width="100%" height="100%" overflow="visible" style="display: block;" viewBox="0 0 24 24" fill="none" xmlns="http://www.w3.org/2000/svg">
<g id="Box">
<g id="Shape">
<path fill-rule="evenodd" clip-rule="evenodd" d="M5.99992 4.99996C5.99992 3.34823 7.33306 1.99988 8.98908 1.99988C10.4312 1.99988 11.4174 2.99542 12 3.92038C12.5826 2.99542 13.5688 1.99988 15.0109 1.99988C16.6669 1.99988 18.0001 3.34823 18.0001 4.99996C18.0001 5.3503 17.9401 5.68699 17.8298 6.00006L18.7383 6C19.2523 6 19.6757 6.38777 19.7319 6.88672C19.7681 7.20878 19.7988 7.55883 19.8324 7.94586C19.8614 8.28045 19.8878 8.63185 19.9105 9H4.0896C4.1123 8.63199 4.1386 8.28072 4.16763 7.94624C4.20123 7.55907 4.23162 7.20888 4.26784 6.88672H4.26954C4.32797 6.3901 4.75031 6.00482 5.26263 6.00482L6.17187 6.00476C6.0605 5.69036 5.99992 5.35205 5.99992 4.99996ZM8.00008 4.99996C8.00008 4.44255 8.44803 4.00003 8.98908 4.00003C9.43664 4.00003 9.92684 4.3342 10.3719 5.09215C10.5488 5.39338 10.6857 5.70878 10.7858 5.99988H8.98908C8.44803 5.99988 8.00008 5.55737 8.00008 4.99996ZM15.0109 4.00003C15.552 4.00003 15.9999 4.44255 15.9999 4.99996C15.9999 5.55737 15.552 5.99988 15.0109 5.99988H13.2142C13.3143 5.70878 13.4512 5.39338 13.6281 5.09215C14.0732 4.3342 14.5634 4.00003 15.0109 4.00003Z" fill="var(--fill-0, #969FA8)"/>
<path d="M4.00956 11C4.00332 11.3238 4 11.6572 4 12.0003C4 13.5503 4.06764 14.9027 4.16774 16.0556C4.3435 18.0799 4.43138 19.0921 5.72517 20.3815C7.01895 21.6708 7.98923 21.7517 9.92979 21.9135C10.2039 21.9364 10.6157 21.9555 11 21.9699V11H4.00956Z" fill="var(--fill-0, #969FA8)"/>
<path d="M11.9707 22C11.9898 22.0005 12 22.0007 12 22.0007C12 22.0007 12.0103 22.0005 12.0293 22H11.9707Z" fill="var(--fill-0, #969FA8)"/>
<path d="M13 21.9699C13.3844 21.9555 13.7962 21.9364 14.0704 21.9135C16.0109 21.7517 16.9811 21.6708 18.2749 20.3815C19.5687 19.0921 19.6565 18.08 19.8323 16.0557C19.9324 14.9028 20.0001 13.5503 20.0001 12.0003C20.0001 11.6572 19.9968 11.3238 19.9905 11H13V21.9699Z" fill="var(--fill-0, #969FA8)"/>
</g>
</g>
</svg>
