<svg preserveAspectRatio="none" width="100%" height="100%" overflow="visible" style="display: block;" viewBox="0 0 24 24" fill="none" xmlns="http://www.w3.org/2000/svg">
<g id="Box">
<path id="Shape" fill-rule="evenodd" clip-rule="evenodd" d="M21 4C21 4.55228 20.5523 5 20 5H19.5974C19.7105 5.54907 19.7648 6.17407 19.8318 6.94594C19.9319 8.09865 19.9995 9.45089 19.9995 11.0003C19.9995 12.8822 19.8997 14.6424 19.7633 16.2112L19.7498 16.3659L19.7486 16.3796C19.6028 18.0598 19.493 19.3246 19.0509 20.3451C18.8486 20.812 18.3925 21.0061 17.8985 21C17.5625 20.9958 17.2088 20.8991 16.9054 20.7325C16.1463 20.3158 15.325 19.9851 15.0164 19.9851C14.6754 19.9851 13.8578 20.2897 13.0865 20.7223C12.7571 20.907 12.3785 20.9999 12.0001 21C11.6235 21.0001 11.2472 20.9082 10.9201 20.7234C10.1488 20.2876 9.33681 19.9779 9.0037 19.9779C8.70144 19.9779 7.86625 20.3116 7.09646 20.7332C6.78553 20.9035 6.42175 21.0006 6.07813 21C5.59291 20.9992 5.1479 20.8036 4.94869 20.3443C4.50565 19.3229 4.39597 18.0591 4.24992 16.3764L4.24898 16.3656L4.23556 16.2111C4.09911 14.6423 3.99939 12.8822 3.99939 11.0003C3.99939 9.45099 4.06698 8.09891 4.16702 6.94624C4.23403 6.17413 4.28826 5.5492 4.40143 5H3.99988C3.44759 5 2.99988 4.55228 2.99988 4C2.99988 3.44772 3.44759 3 3.99988 3H20C20.5523 3 21 3.44772 21 4ZM15 9C15 9.55228 14.5523 10 14 10H10C9.44772 10 9 9.55228 9 9C9 8.44772 9.44772 8 10 8H14C14.5523 8 15 8.44772 15 9ZM11.9999 14C12.5522 14 12.9999 13.5523 12.9999 13C12.9999 12.4477 12.5522 12 11.9999 12L9.99988 12C9.44759 12 8.99988 12.4477 8.99988 13C8.99988 13.5523 9.44759 14 9.99988 14L11.9999 14Z" fill="var(--fill-0, #969FA8)"/>
</g>
</svg>
