<svg preserveAspectRatio="none" width="100%" height="100%" overflow="visible" style="display: block;" viewBox="0 0 14 14" fill="none" xmlns="http://www.w3.org/2000/svg">
<g id="network_wifi_3_bar_24dp_E3E3E3_FILL0_wght400_GRAD0_opsz24">
<path id="Vector" d="M7 12.25L0 5.25002C0.933333 4.29724 2.00278 3.57293 3.20833 3.0771C4.41389 2.58127 5.67778 2.33335 7 2.33335C8.33194 2.33335 9.60069 2.58127 10.8063 3.0771C12.0118 3.57293 13.0764 4.29724 14 5.25002L7 12.25ZM3.38333 6.97085C3.89861 6.60141 4.4625 6.31217 5.075 6.10314C5.6875 5.89411 6.32917 5.7896 7 5.7896C7.67083 5.7896 8.3125 5.89411 8.925 6.10314C9.5375 6.31217 10.1014 6.60141 10.6167 6.97085L12.3083 5.27918C11.55 4.70557 10.7212 4.26564 9.82188 3.95939C8.92257 3.65314 7.98194 3.50002 7 3.50002C6.01806 3.50002 5.07743 3.65314 4.17813 3.95939C3.27882 4.26564 2.45 4.70557 1.69167 5.27918L3.38333 6.97085Z" fill="var(--fill-0, #FAFAFA)"/>
</g>
</svg>
