<svg preserveAspectRatio="none" width="100%" height="100%" overflow="visible" style="display: block;" viewBox="0 0 14 14" fill="none" xmlns="http://www.w3.org/2000/svg">
<g id="battery_5_bar_24dp_E3E3E3_FILL0_wght400_GRAD0_opsz24">
<path id="Vector" d="M4.66668 12.8333C4.50141 12.8333 4.36287 12.7774 4.25106 12.6656C4.13925 12.5538 4.08335 12.4153 4.08335 12.25V2.91665C4.08335 2.75137 4.13925 2.61283 4.25106 2.50102C4.36287 2.38922 4.50141 2.33332 4.66668 2.33332H5.83335V1.16665H8.16668V2.33332H9.33335C9.49863 2.33332 9.63717 2.38922 9.74898 2.50102C9.86078 2.61283 9.91668 2.75137 9.91668 2.91665V12.25C9.91668 12.4153 9.86078 12.5538 9.74898 12.6656C9.63717 12.7774 9.49863 12.8333 9.33335 12.8333H4.66668ZM5.25002 5.83332H8.75002V3.49998H5.25002V5.83332Z" fill="var(--fill-0, #FAFAFA)"/>
</g>
</svg>
