<svg width="16" height="16" viewBox="0 0 16 16" fill="none" xmlns="http://www.w3.org/2000/svg">
<path fill-rule="evenodd" clip-rule="evenodd" d="M2.16501 11.6943C2.07228 10.728 2 9.49529 2 8C2 6.50507 2.07224 5.27251 2.16495 4.30626C2.2734 3.17583 2.32763 2.61062 2.98267 1.93845C3.63771 1.26627 4.13287 1.20583 5.12317 1.08495C5.54778 1.03312 6.01059 1 6.5 1C6.98944 1 7.45226 1.03312 7.87688 1.08496C8.86714 1.20584 9.36227 1.26628 10.0173 1.93844C10.6723 2.61061 10.7266 3.17579 10.835 4.30615C10.9277 5.27242 11 6.50501 11 7.99999C11 8.64262 10.9866 9.23676 10.9641 9.78209L10.841 9.65906C9.96239 8.78035 8.53776 8.78031 7.65906 9.65896C6.78035 10.5376 6.78031 11.9622 7.65896 12.8409L9.37909 14.5612C8.96876 14.7815 8.53113 14.835 7.87799 14.9148C7.45306 14.9668 6.98986 15 6.5 15C6.01015 15 5.54695 14.9668 5.12203 14.9149C4.1323 14.7939 3.63744 14.7334 2.98256 14.0613C2.32767 13.3891 2.27345 12.8242 2.16501 11.6943ZM5 4.25C5 3.83579 5.33579 3.5 5.75 3.5H7.25C7.66421 3.5 8 3.83579 8 4.25C8 4.66421 7.66421 5 7.25 5H5.75C5.33579 5 5 4.66421 5 4.25Z" fill="#969FA8"/>
<path d="M15.2803 10.2803C15.5732 9.98742 15.5732 9.51254 15.2803 9.21966C14.9874 8.92677 14.5125 8.92678 14.2197 9.21968L11.25 12.1895L9.78035 10.7197C9.48746 10.4268 9.01259 10.4268 8.71969 10.7197C8.42678 11.0125 8.42677 11.4874 8.71965 11.7803L10.7197 13.7805C10.8603 13.9211 11.0511 14.0002 11.25 14.0002C11.4489 14.0002 11.6397 13.9211 11.7804 13.7805L15.2803 10.2803Z" fill="#969FA8"/>
</svg>
