<svg preserveAspectRatio="none" width="100%" height="100%" overflow="visible" style="display: block;" viewBox="0 0 24 24" fill="none" xmlns="http://www.w3.org/2000/svg">
<g id="Layout">
<path id="Color" d="M14.3343 5.22303C14.9301 5.22303 15.5262 5.24974 16.1038 5.29334C18.3318 5.46152 19.4456 5.54596 20.5638 6.68006C21.6819 7.81415 21.7651 8.94375 21.931 11.2035C21.9739 11.7893 22.0003 13.2574 22.0003 13.8617C22.0003 14.466 21.9739 15.9341 21.931 16.5199C21.7651 18.7796 21.6819 19.9092 20.5638 21.0433C19.4456 22.1774 18.3318 22.2619 16.1038 22.4301C15.5262 22.4737 14.9301 22.5004 14.3343 22.5004C13.7387 22.5004 13.1431 22.4736 12.5657 22.4301C10.3377 22.2619 9.22297 22.1775 8.10478 21.0433C6.98692 19.9094 6.90437 18.7794 6.73857 16.5199C6.69558 15.9341 6.66923 14.466 6.66923 13.8617C6.66923 13.2574 6.69558 11.7893 6.73857 11.2035C6.90437 8.94398 6.98696 7.81404 8.10478 6.68006C9.22297 5.54595 10.3377 5.46153 12.5657 5.29334C13.1431 5.24976 13.7387 5.22304 14.3343 5.22303ZM10.1565 1.74354C12.3696 1.43542 13.4764 1.28052 14.8089 2.15174C15.3407 2.49947 15.7113 2.88214 16.0052 3.35389C15.4551 3.32221 14.895 3.30408 14.3352 3.30408C13.5907 3.30409 12.8461 3.33578 12.1243 3.38905C9.33951 3.59458 7.94671 3.69764 6.54911 5.08338C5.15141 6.46948 5.0474 7.85083 4.84013 10.6127C4.7864 11.3286 4.75419 13.1231 4.75419 13.8617C4.75419 14.6003 4.7864 16.3948 4.84013 17.1107C4.87 17.5088 4.89729 17.8782 4.92704 18.223C4.18083 17.4359 3.8764 16.4009 3.37626 14.7015C3.21045 14.1381 2.87409 12.7081 2.74638 12.1176C2.61863 11.5267 2.33401 10.0867 2.25224 9.50526C1.93674 7.26167 1.77906 6.13978 2.63212 4.79432C3.48528 3.44879 4.55651 3.13041 6.69853 2.49354C7.25366 2.32848 7.83025 2.17651 8.4124 2.05018C8.99466 1.92383 9.58286 1.82341 10.1565 1.74354ZM14.3343 10.4047C13.864 10.4049 13.4827 10.792 13.4827 11.2689V12.9965H11.7796C11.3092 12.9965 10.928 13.3836 10.928 13.8607C10.9282 14.3376 11.3093 14.724 11.7796 14.724H13.4827V16.4515C13.4827 16.9285 13.864 17.3156 14.3343 17.3158C14.8047 17.3158 15.1868 16.9286 15.1868 16.4515V14.724H16.8899C17.3601 14.7239 17.7413 14.3376 17.7415 13.8607C17.7415 13.3837 17.3602 12.9966 16.8899 12.9965H15.1868V11.2689C15.1868 10.7918 14.8047 10.4047 14.3343 10.4047Z" fill="var(--fill-0, white)"/>
</g>
</svg>
