<svg preserveAspectRatio="none" width="100%" height="100%" overflow="visible" style="display: block;" viewBox="0 0 24 24" fill="none" xmlns="http://www.w3.org/2000/svg">
<g id="Layout">
<path id="Color" d="M11.999 3.00391C12.6985 3.00391 13.399 3.03449 14.0772 3.08496C16.6928 3.27963 18.0007 3.37672 19.3135 4.68945C20.6264 6.00233 20.7243 7.31077 20.9189 9.92676C20.9694 10.6048 20.999 11.3045 20.999 12.0039C20.999 12.7033 20.9694 13.403 20.9189 14.0811C20.7243 16.6968 20.6262 18.0046 19.3135 19.3174C18.0007 20.6302 16.6928 20.7282 14.0772 20.9229C13.399 20.9733 12.6985 21.0039 11.999 21.0039C11.2997 21.0039 10.5998 20.9733 9.92188 20.9229C7.30618 20.7282 5.99835 20.6302 4.68555 19.3174C3.37278 18.0046 3.27476 16.6968 3.08008 14.0811C3.02962 13.403 2.99904 12.7033 2.99903 12.0039C2.99903 11.3045 3.02963 10.6048 3.08008 9.92676C3.27477 7.31077 3.37268 6.00233 4.68555 4.68945C5.99832 3.37672 7.30625 3.27963 9.92188 3.08496C10.5998 3.0345 11.2997 3.00392 11.999 3.00391ZM11.4043 6.00195C10.0914 6.00195 9.43463 6.0017 8.92676 6.24219C8.40486 6.48937 7.98448 6.90973 7.73731 7.43164C7.49682 7.93952 7.49707 8.59629 7.49707 9.90918V11.502C6.94612 11.5035 6.5 11.9506 6.5 12.502C6.50007 13.0542 6.94776 13.5019 7.5 13.502V15.002C6.94774 15.002 6.5 15.4497 6.5 16.002C6.50007 16.5542 6.94778 17.0019 7.5 17.002V17.5C7.5 18.0523 7.94772 18.5 8.5 18.5C9.05222 18.4999 9.5 18.0522 9.5 17.5V17.002L13.998 17C14.5503 17 14.998 16.5523 14.998 16C14.998 15.4477 14.5503 15 13.998 15L9.5 15.002V13.4971H13.5928C13.8017 13.4971 14.006 13.4937 14.2041 13.4873C16.3004 13.4199 18 12.0066 18 9.90918C17.9998 7.64914 16.1563 6.04039 13.8965 6.00391C13.7967 6.0023 13.695 6.00195 13.5928 6.00195H11.4043ZM13.8643 8.00391C15.2076 8.02562 15.9998 8.90863 16 9.90918C16 10.6971 15.4025 11.4477 14.1397 11.4883C13.962 11.494 13.7792 11.4971 13.5928 11.4971H9.5V10.7637C9.5 10.7379 9.49898 10.7118 9.49707 10.6865V9.90918C9.49707 9.22192 9.49866 8.81893 9.52149 8.52148C9.53306 8.37082 9.54758 8.29746 9.55371 8.27148C9.60111 8.18034 9.67546 8.10599 9.7666 8.05859C9.79255 8.05246 9.86589 8.03795 10.0166 8.02637C10.314 8.00354 10.7171 8.00195 11.4043 8.00195H13.5928C13.684 8.00195 13.775 8.00247 13.8643 8.00391Z" fill="var(--fill-0, white)" fill-opacity="0.46"/>
</g>
</svg>
