<svg preserveAspectRatio="none" width="100%" height="100%" overflow="visible" style="display: block;" viewBox="0 0 24 24" fill="none" xmlns="http://www.w3.org/2000/svg">
<g id="Layout">
<path id="Color" d="M12.0001 2C13.703 2.00004 15.2119 3.75886 17.0226 5.87012C17.3384 6.23842 17.6632 6.61773 18.0001 7C18.9869 8.11969 19.9556 9.26714 20.7736 10.2549C21.5722 11.2193 21.9713 11.7018 21.9493 12.166C21.9372 12.422 21.839 12.6754 21.6759 12.873C21.38 13.2312 20.7534 13.321 19.5001 13.5C19.5001 15.9306 19.4999 17.146 18.9064 18.2529C18.5333 18.9486 17.7626 19.7605 17.087 20.1689C16.0121 20.8188 15.0244 20.8698 13.0499 20.9717C12.6954 20.99 12.3437 21 12.0001 21C11.6564 21 11.3041 20.99 10.9493 20.9717C8.97522 20.8699 7.98803 20.8187 6.9132 20.1689C6.23765 19.7605 5.46699 18.9486 5.09387 18.2529C4.50028 17.146 4.50012 15.9307 4.50012 13.5C3.24648 13.3209 2.61915 13.2315 2.32336 12.873C2.16033 12.6754 2.06305 12.4219 2.0509 12.166C2.02893 11.7018 2.42801 11.2193 3.22668 10.2549C4.04465 9.26715 5.0134 8.11968 6.00012 7C6.33699 6.61774 6.6618 6.23841 6.97766 5.87012C8.78828 3.75886 10.2972 2 12.0001 2Z" fill="var(--fill-0, white)" fill-opacity="0.46"/>
</g>
</svg>
