<svg preserveAspectRatio="none" width="100%" height="100%" overflow="visible" style="display: block;" viewBox="0 0 20 20" fill="none" xmlns="http://www.w3.org/2000/svg">
<g id="Box">
<g id="Shape">
<path d="M16.6483 16.6304C17.1001 16.5529 17.3842 16.1403 17.4083 15.6826C17.4486 14.9182 17.5 13.5694 17.5 11.6673C17.5 9.7649 17.4485 8.41552 17.4083 7.65093C17.3842 7.19321 17.1 6.78051 16.6483 6.70302C16.5209 6.68118 16.3855 6.66673 16.25 6.66673C16.1146 6.66673 15.9792 6.68118 15.8518 6.70303C15.4 6.78052 15.1159 7.19319 15.0918 7.65088C15.0515 8.41546 15 9.76486 15 11.6673C15 13.5694 15.0515 14.9183 15.0918 15.6826C15.1159 16.1403 15.4 16.5529 15.8517 16.6304C15.9791 16.6523 16.1146 16.6667 16.25 16.6667C16.3855 16.6667 16.5209 16.6523 16.6483 16.6304Z" fill="var(--fill-0, #FAFAFA)"/>
<path d="M15.2614 3.26565C15.5289 3.64015 15.4422 4.16061 15.0677 4.42814L12.1515 6.51148C11.9528 6.65342 11.7019 6.70107 11.465 6.64185L8.53203 5.90862L4.68765 8.98412C4.32827 9.27163 3.80386 9.21336 3.51635 8.85398C3.22884 8.49459 3.28711 7.97018 3.64649 7.68267L7.81316 4.34934C8.01625 4.18687 8.28354 4.12853 8.53585 4.19161L11.4958 4.9316L14.0989 3.07199C14.4734 2.80445 14.9939 2.89116 15.2614 3.26565Z" fill="var(--fill-0, #FAFAFA)"/>
<path d="M13.2646 15.6891C13.2325 16.1854 12.8852 16.6067 12.3899 16.652C12.2901 16.6611 12.1868 16.6667 12.0834 16.6667C11.98 16.6667 11.8766 16.6611 11.7768 16.652C11.2815 16.6066 10.9342 16.1855 10.9021 15.6892C10.8676 15.1569 10.8333 14.368 10.8333 13.3338C10.8333 12.2993 10.8676 11.5101 10.9021 10.9777C10.9342 10.4814 11.2815 10.0601 11.7768 10.0148C11.8766 10.0057 11.98 10.0001 12.0834 10.0001C12.1867 10.0001 12.2901 10.0057 12.3898 10.0148C12.8852 10.0601 13.2325 10.4814 13.2646 10.9778C13.2991 11.5102 13.3333 12.2993 13.3333 13.3338C13.3333 14.368 13.2991 15.1569 13.2646 15.6891Z" fill="var(--fill-0, #FAFAFA)"/>
<path d="M9.08486 15.6834C9.05701 16.1616 8.74184 16.5821 8.26674 16.643C8.15366 16.6575 8.03518 16.6667 7.91671 16.6667C7.79822 16.6667 7.67973 16.6575 7.56662 16.643C7.09156 16.5821 6.7764 16.1616 6.74853 15.6835C6.7102 15.0259 6.66667 13.9581 6.66667 12.5005C6.66667 11.0427 6.71022 9.97455 6.74855 9.31671C6.77642 8.83854 7.09159 8.418 7.56668 8.3571C7.67977 8.34261 7.79824 8.3334 7.91671 8.3334C8.03517 8.3334 8.15362 8.34261 8.26669 8.3571C8.74181 8.41799 9.05699 8.83856 9.08484 9.31676C9.12315 9.97461 9.16667 11.0427 9.16667 12.5005C9.16667 13.9581 9.12316 15.0258 9.08486 15.6834Z" fill="var(--fill-0, #FAFAFA)"/>
<path d="M4.02627 16.6577C4.53483 16.6258 4.91278 16.2154 4.94914 15.7071C4.97667 15.3223 5 14.8074 5 14.167C5 13.5265 4.97667 13.0114 4.94913 12.6265C4.91276 12.1182 4.53478 11.7077 4.02617 11.6758C3.93586 11.6701 3.84295 11.6667 3.75004 11.6667C3.65711 11.6667 3.56417 11.6701 3.47383 11.6758C2.96526 11.7077 2.5873 12.1181 2.55091 12.6264C2.52336 13.0113 2.5 13.5264 2.5 14.167C2.5 14.8074 2.52335 15.3224 2.5509 15.7072C2.58728 16.2154 2.96522 16.6258 3.47373 16.6577C3.5641 16.6633 3.65707 16.6667 3.75004 16.6667C3.84298 16.6667 3.93593 16.6633 4.02627 16.6577Z" fill="var(--fill-0, #FAFAFA)"/>
</g>
</g>
</svg>
