<svg preserveAspectRatio="none" width="100%" height="100%" overflow="visible" style="display: block;" viewBox="0 0 20 20" fill="none" xmlns="http://www.w3.org/2000/svg">
<g id="Box">
<path id="Shape" fill-rule="evenodd" clip-rule="evenodd" d="M17.5 4.3119C17.5 4.19314 17.5 4.13376 17.4947 4.08682C17.4433 3.63523 17.0395 3.30808 16.5871 3.35147C16.5401 3.35598 16.482 3.36829 16.3658 3.39291L15.8576 3.50063C14.211 3.84962 12.4982 3.70785 10.9314 3.09286C9.24269 2.43004 7.38766 2.3181 5.63151 2.77305L4.90916 2.96018C4.79684 2.98928 4.74068 3.00383 4.69235 3.02302C4.40989 3.13523 4.21091 3.39232 4.17313 3.69389C4.16667 3.74549 4.16667 3.8035 4.16667 3.91953V16.6667C4.16667 17.1269 4.53976 17.5 5 17.5C5.46024 17.5 5.83333 17.1269 5.83333 16.6667V13.2059C7.52925 12.81 9.30725 12.9379 10.9314 13.5754C12.4982 14.1904 14.211 14.3322 15.8576 13.9832L16.6786 13.8092C16.831 13.7769 16.9072 13.7607 16.9717 13.7354C17.244 13.6282 17.4403 13.3861 17.4886 13.0974C17.5 13.0291 17.5 12.9512 17.5 12.7954V4.3119ZM12.5 5.23285C11.7584 5.11781 11.028 4.92125 10.3224 4.6443C9.94593 4.49652 9.55917 4.3827 9.16667 4.30313L9.16667 7.84974C8.06384 7.67076 6.93138 7.7075 5.83333 7.96383V11.5019C6.93576 11.2881 8.06178 11.2573 9.16667 11.4069L9.16667 7.84974C9.76714 7.94719 10.3588 8.1086 10.9314 8.33333C11.4412 8.53345 11.9665 8.68346 12.5 8.78276L12.5 12.3224C13.4857 12.5521 14.514 12.5643 15.512 12.3527L15.8333 12.2846V8.74621C14.7302 8.97669 13.5978 8.98712 12.5 8.78276L12.5 5.23285Z" fill="var(--fill-0, #FAFAFA)"/>
</g>
</svg>
