<svg preserveAspectRatio="none" width="100%" height="100%" overflow="visible" style="display: block;" viewBox="0 0 52 52" fill="none" xmlns="http://www.w3.org/2000/svg">
<g id="Money">
<rect id="Rectangle 2" opacity="0.72" width="52" height="52" rx="26" fill="url(#paint0_radial_0_34)"/>
<rect id="Rectangle 3" x="2" y="2" width="48" height="48" rx="24" fill="url(#paint1_radial_0_34)"/>
<g id="Vector">
<path d="M28.8156 23.0001C28.8156 20.893 27.1072 19.1847 25.0001 19.1846C22.8929 19.1846 21.1846 20.8929 21.1846 23.0001C21.1847 25.1072 22.893 26.8156 25.0001 26.8156V29.4002L24.6703 29.3918C21.3979 29.2258 18.7742 26.6016 18.6084 23.3291L18.6 23.0001C18.6 19.4655 21.4655 16.6 25.0001 16.6L25.3291 16.6084C28.7108 16.7797 31.4002 19.5759 31.4002 23.0001L31.3918 23.3291C31.2206 26.7107 28.4243 29.4002 25.0001 29.4002V26.8156C27.1072 26.8156 28.8156 25.1072 28.8156 23.0001Z" fill="url(#paint2_linear_0_34)"/>
<path d="M25.1847 23.0004L25.1813 22.9626C25.1665 22.8906 25.1094 22.8343 25.0374 22.8195L25.0004 22.8153C24.8985 22.8153 24.8153 22.8985 24.8153 23.0004L24.8195 23.0374C24.8368 23.1215 24.9113 23.1847 25.0004 23.1847V25.4L24.7547 25.3874C23.5446 25.2645 22.6002 24.2429 22.6 23.0004C22.6 21.6749 23.6749 20.6 25.0004 20.6C26.3258 20.6002 27.4 21.675 27.4 23.0004L27.3874 23.2453C27.2646 24.4555 26.243 25.3998 25.0004 25.4V23.1847C25.0894 23.1845 25.1641 23.1214 25.1813 23.0374L25.1847 23.0004Z" fill="url(#paint3_linear_0_34)"/>
<path d="M24.2 27.8H25.8V33.4H24.2V27.8Z" fill="url(#paint4_linear_0_34)"/>
<path d="M24.2 12.6H25.8V18.2H24.2V12.6Z" fill="url(#paint5_linear_0_34)"/>
<path d="M26.6 12.6C26.6 13.4837 25.8837 14.2 25 14.2C24.1163 14.2 23.4 13.4837 23.4 12.6C23.4 11.7163 24.1163 11 25 11C25.8837 11 26.6 11.7163 26.6 12.6Z" fill="url(#paint6_linear_0_34)"/>
<path d="M14.6 23.8V22.2H20.2V23.8H14.6Z" fill="url(#paint7_linear_0_34)"/>
<path d="M14.6 21.4C15.4837 21.4 16.2 22.1163 16.2 23C16.2 23.8837 15.4837 24.6 14.6 24.6C13.7163 24.6 13 23.8837 13 23C13 22.1163 13.7163 21.4 14.6 21.4Z" fill="url(#paint8_linear_0_34)"/>
<path d="M35.4 22.2V23.8H29.8V22.2H35.4Z" fill="url(#paint9_linear_0_34)"/>
<path d="M35.4 24.6C34.5163 24.6 33.8 23.8837 33.8 23C33.8 22.1163 34.5163 21.4 35.4 21.4C36.2837 21.4 37 22.1163 37 23C37 23.8837 36.2837 24.6 35.4 24.6Z" fill="url(#paint10_linear_0_34)"/>
<path d="M26.6 33.4C26.6 34.2837 25.8837 35 25 35C24.1163 35 23.4 34.2837 23.4 33.4C23.4 32.5163 24.1163 31.8 25 31.8C25.8837 31.8 26.6 32.5163 26.6 33.4Z" fill="url(#paint11_linear_0_34)"/>
</g>
</g>
<defs>
<radialGradient id="paint0_radial_0_34" cx="0" cy="0" r="1" gradientTransform="matrix(52 52 -52 108.494 0 0)" gradientUnits="userSpaceOnUse">
<stop stop-color="#BAE0FF" stop-opacity="0.24"/>
<stop offset="0.841346" stop-color="#283148"/>
</radialGradient>
<radialGradient id="paint1_radial_0_34" cx="0" cy="0" r="1" gradientTransform="matrix(48 48 -48 100.148 2 2)" gradientUnits="userSpaceOnUse">
<stop stop-color="#BAE0FF" stop-opacity="0.24"/>
<stop offset="0.841346" stop-color="#283148"/>
</radialGradient>
<linearGradient id="paint2_linear_0_34" x1="13" y1="11" x2="37" y2="35" gradientUnits="userSpaceOnUse">
<stop stop-color="#E8F5FF"/>
<stop offset="1" stop-color="#BAE0FF" stop-opacity="0.56"/>
</linearGradient>
<linearGradient id="paint3_linear_0_34" x1="13" y1="11" x2="37" y2="35" gradientUnits="userSpaceOnUse">
<stop stop-color="#E8F5FF"/>
<stop offset="1" stop-color="#BAE0FF" stop-opacity="0.56"/>
</linearGradient>
<linearGradient id="paint4_linear_0_34" x1="13" y1="11" x2="37" y2="35" gradientUnits="userSpaceOnUse">
<stop stop-color="#E8F5FF"/>
<stop offset="1" stop-color="#BAE0FF" stop-opacity="0.56"/>
</linearGradient>
<linearGradient id="paint5_linear_0_34" x1="13" y1="11" x2="37" y2="35" gradientUnits="userSpaceOnUse">
<stop stop-color="#E8F5FF"/>
<stop offset="1" stop-color="#BAE0FF" stop-opacity="0.56"/>
</linearGradient>
<linearGradient id="paint6_linear_0_34" x1="13" y1="11" x2="37" y2="35" gradientUnits="userSpaceOnUse">
<stop stop-color="#E8F5FF"/>
<stop offset="1" stop-color="#BAE0FF" stop-opacity="0.56"/>
</linearGradient>
<linearGradient id="paint7_linear_0_34" x1="13" y1="11" x2="37" y2="35" gradientUnits="userSpaceOnUse">
<stop stop-color="#E8F5FF"/>
<stop offset="1" stop-color="#BAE0FF" stop-opacity="0.56"/>
</linearGradient>
<linearGradient id="paint8_linear_0_34" x1="13" y1="11" x2="37" y2="35" gradientUnits="userSpaceOnUse">
<stop stop-color="#E8F5FF"/>
<stop offset="1" stop-color="#BAE0FF" stop-opacity="0.56"/>
</linearGradient>
<linearGradient id="paint9_linear_0_34" x1="13" y1="11" x2="37" y2="35" gradientUnits="userSpaceOnUse">
<stop stop-color="#E8F5FF"/>
<stop offset="1" stop-color="#BAE0FF" stop-opacity="0.56"/>
</linearGradient>
<linearGradient id="paint10_linear_0_34" x1="13" y1="11" x2="37" y2="35" gradientUnits="userSpaceOnUse">
<stop stop-color="#E8F5FF"/>
<stop offset="1" stop-color="#BAE0FF" stop-opacity="0.56"/>
</linearGradient>
<linearGradient id="paint11_linear_0_34" x1="13" y1="11" x2="37" y2="35" gradientUnits="userSpaceOnUse">
<stop stop-color="#E8F5FF"/>
<stop offset="1" stop-color="#BAE0FF" stop-opacity="0.56"/>
</linearGradient>
</defs>
</svg>
