<svg preserveAspectRatio="none" width="100%" height="100%" overflow="visible" style="display: block;" viewBox="0 0 20 20" fill="none" xmlns="http://www.w3.org/2000/svg">
<g id="Box">
<path id="Shape" fill-rule="evenodd" clip-rule="evenodd" d="M11.6667 2.91667C12.0552 2.91667 12.4439 2.93339 12.8206 2.96143C14.2739 3.06959 15.0006 3.12402 15.73 3.85335C16.4594 4.58273 16.5137 5.30937 16.6219 6.7627C16.6499 7.13943 16.6667 7.52805 16.6667 7.91667C16.6667 8.30528 16.6499 8.69391 16.6219 9.07064C16.5137 10.524 16.4594 11.2506 15.73 11.98C15.0881 12.6218 14.4485 12.7407 13.3138 12.8337C13.3162 12.7866 13.3175 12.7393 13.3195 12.6921C13.3204 12.6696 13.3211 12.647 13.3219 12.6245C13.3287 12.4452 13.3333 12.2646 13.3333 12.0841C13.3333 11.8992 13.3282 11.7144 13.3211 11.5308C13.3197 11.4935 13.3179 11.4564 13.3162 11.4193C13.3123 11.333 13.3093 11.2467 13.304 11.1613C13.6952 11.1271 13.9351 11.0958 14.1276 11.0457C14.307 10.9991 14.4055 10.9476 14.5516 10.8016C14.6977 10.6555 14.7491 10.5569 14.7957 10.3776C14.8677 10.1011 14.9012 9.72706 14.9593 8.94694C14.9848 8.60435 15 8.25753 15 7.91667C15 7.5758 14.9848 7.22899 14.9593 6.88639C14.9012 6.10627 14.8677 5.73225 14.7957 5.45573C14.7491 5.2764 14.6977 5.1778 14.5516 5.03174C14.4055 4.88569 14.307 4.83427 14.1276 4.7876C13.8511 4.71568 13.4771 4.68208 12.6969 4.62402C12.3544 4.59853 12.0075 4.58333 11.6667 4.58333C11.3258 4.58334 10.979 4.59853 10.6364 4.62402C9.85668 4.68205 9.48301 4.71575 9.20654 4.7876C9.02701 4.83429 8.92788 4.88559 8.78174 5.03174C8.6357 5.17778 8.58427 5.27639 8.5376 5.45573C8.46568 5.73225 8.43208 6.10626 8.37402 6.88639C8.36913 6.95219 8.36428 7.01811 8.36019 7.08415C8.7398 7.08491 9.1193 7.10233 9.48731 7.12972C10.9406 7.23788 11.6673 7.29156 12.3966 8.02083C13.126 8.75018 13.1804 9.47696 13.2886 10.9302C13.3006 11.0913 13.3087 11.2548 13.3162 11.4193C13.3179 11.4564 13.3197 11.4935 13.3211 11.5308C13.3282 11.7144 13.3333 11.8992 13.3333 12.0841C13.3333 12.2873 13.3279 12.4906 13.3195 12.6921C13.3118 12.8759 13.3019 13.0584 13.2886 13.2381C13.1804 14.6914 13.1259 15.4181 12.3966 16.1475C11.6673 16.8768 10.9406 16.9312 9.48731 17.0394C9.11057 17.0674 8.72195 17.0841 8.33333 17.0841C7.94472 17.0841 7.55609 17.0674 7.17936 17.0394C5.72604 16.9312 4.99939 16.8768 4.27002 16.1475C3.54074 15.4181 3.48625 14.6914 3.37809 13.2381C3.35006 12.8615 3.33333 12.4727 3.33333 12.0841C3.33334 11.6956 3.35006 11.3068 3.37809 10.9302C3.48625 9.47696 3.54067 8.75018 4.27002 8.02083C4.91182 7.37909 5.55161 7.26015 6.6862 7.16716C6.69309 7.0312 6.70149 6.89619 6.71143 6.7627C6.81959 5.3094 6.87402 4.58271 7.60335 3.85335C8.33272 3.12399 9.05941 3.06959 10.5127 2.96143C10.8894 2.93339 11.2781 2.91667 11.6667 2.91667ZM8.33415 9.58333C7.87412 9.58342 7.50163 9.95659 7.50163 10.4167V11.2508H6.66667C6.20656 11.2508 5.83333 11.624 5.83333 12.0841C5.83336 12.5443 6.20658 12.9175 6.66667 12.9175H7.50163V13.75C7.50163 14.2101 7.87412 14.5832 8.33415 14.5833C8.79425 14.5833 9.16748 14.2101 9.16748 13.75V12.9175H10C10.4601 12.9175 10.8333 12.5443 10.8333 12.0841C10.8333 11.624 10.4601 11.2508 10 11.2508H9.16748V10.4167C9.16748 9.95654 8.79425 9.58333 8.33415 9.58333Z" fill="var(--fill-0, #FAFAFA)"/>
</g>
</svg>
