<svg preserveAspectRatio="none" width="100%" height="100%" overflow="visible" style="display: block;" viewBox="0 0 16 16" fill="none" xmlns="http://www.w3.org/2000/svg">
<g id="Box">
<g id="Shape">
<path d="M7.84713 4.60543C7.95164 4.74396 7.99921 4.89267 7.99998 5.03515C8.00197 5.40399 7.6903 5.73101 7.24106 5.73101C6.97336 5.73101 6.72211 5.60316 6.55971 5.39034C6.38767 5.16492 6.17831 4.90394 5.93753 4.59579C5.87039 4.50987 5.80806 4.43018 5.74993 4.35611L5.74994 12.75C5.74994 13.1642 5.41415 13.5 4.99994 13.5C4.58572 13.5 4.24994 13.1642 4.24994 12.75L4.24993 4.35628C4.19184 4.43029 4.12955 4.50994 4.06247 4.59579C3.82168 4.90394 3.61228 5.16492 3.44025 5.39034C3.27785 5.60316 3.0266 5.73101 2.7589 5.73101C2.30966 5.73101 1.99799 5.40399 1.99998 5.03515C2.00075 4.89267 2.04832 4.74396 2.15283 4.60543C2.35914 4.332 2.59982 4.02398 2.87468 3.67223C3.6078 2.73402 3.9802 2.26489 4.42787 2.10127C4.6126 2.03376 4.8063 2 4.99999 2C5.19369 2 5.38739 2.03376 5.57212 2.10127C6.0198 2.26489 6.39214 2.734 7.12526 3.67221C7.40011 4.02396 7.64082 4.33201 7.84713 4.60543Z" fill="#E2E5EB"/>
<path d="M13.2417 10.2463C13.6915 10.2463 14.0041 10.5726 14 10.9415C13.9985 11.0807 13.9519 11.226 13.8506 11.3621C13.6431 11.641 13.3989 11.9567 13.1184 12.3195C12.3912 13.2599 12.0258 13.7302 11.5819 13.8965C11.205 14.0376 10.7898 14.0376 10.413 13.8965C9.96899 13.7302 9.6089 13.26 8.88167 12.3196C8.60116 11.9568 8.35688 11.6409 8.1494 11.3621C8.04812 11.226 8.00152 11.0807 7.99998 10.9415C7.99589 10.5726 8.3085 10.2463 8.75832 10.2463C9.03007 10.2463 9.2848 10.3772 9.4484 10.5942C9.62012 10.822 9.82117 11.087 10.0648 11.402C10.131 11.4876 10.1925 11.5672 10.25 11.6411L10.25 3.25C10.25 2.83579 10.5858 2.5 11 2.5C11.4142 2.5 11.75 2.83579 11.75 3.25L11.75 11.6345C11.8059 11.5625 11.8658 11.4851 11.9301 11.402C12.1737 11.087 12.3799 10.822 12.5516 10.5942C12.7152 10.3772 12.9699 10.2463 13.2417 10.2463Z" fill="#E2E5EB"/>
</g>
</g>
</svg>
